<?xml version="1.0" encoding="utf-8"?>
<!-- Generator: Adobe Illustrator 19.2.1, SVG Export Plug-In . SVG Version: 6.00 Build 0)  -->
<svg version="1.1" id="ii-circle" xmlns="http://www.w3.org/2000/svg" xmlns:xlink="http://www.w3.org/1999/xlink" x="0px" y="0px"
	 viewBox="0 0 100 100" style="enable-background:new 0 0 100 100;" xml:space="preserve">
<style type="text/css">
	.st0{fill:none;}
</style>
<g>
	<path d="M56.9,27.8c2.2-0.1,4.1,1.6,4.2,3.7c0,0,0,0.1,0,0.1c-0.2,2.3-2.2,4-4.4,3.8c-2.1-0.1-3.7-1.8-3.8-3.8
		C52.9,29.5,54.7,27.8,56.9,27.8C56.9,27.8,56.9,27.8,56.9,27.8z M53.8,40.5h6.5v25.8h-6.5L53.8,40.5L53.8,40.5z"/>
	<path d="M42.9,33.6c2.1-0.2,4,1.4,4.2,3.6c0.2,2.1-1.4,4-3.6,4.2c-0.2,0-0.4,0-0.6,0c-2.1,0.1-4-1.6-4-3.7c-0.1-2.1,1.6-4,3.7-4
		C42.7,33.6,42.8,33.6,42.9,33.6z M39.8,46.2h6.5V72h-6.5C39.8,72,39.8,46.2,39.8,46.2z"/>
	<path d="M50,86.1c-20,0-36.1-16.2-36.1-36.1c0-14.5,8.7-27.7,22.1-33.3c18.4-7.8,39.6,0.8,47.3,19.2s-0.8,39.6-19.2,47.3l0,0
		C59.6,85.1,54.8,86.1,50,86.1z M50,19c-17.1,0-30.9,13.8-30.9,30.9S32.9,80.8,50,80.8c17.1,0,30.9-13.8,30.9-30.9
		C80.9,32.9,67.1,19,50,19z"/>
</g>
</svg>
