<svg id="ii" data-name="ii" xmlns="http://www.w3.org/2000/svg" viewBox="0 0 100 100">
  <defs>
    <style>
      .cls-1 {
        fill: #4f4f4f;
      }
    </style>
  </defs>
  <g>
    <path class="cls-1" d="M65.67,0.13c5.35,0,9.48,3.77,9.48,8.75S71,17.62,65.67,17.62a9,9,0,0,1-9.24-8.75A9,9,0,0,1,65.67.13ZM58.51,28.68H73.09V87H58.51V28.68Z"/>
    <path class="cls-1" d="M34.08,13.12c5.35,0,9.48,3.77,9.48,8.75s-4.13,8.75-9.48,8.75a9,9,0,0,1-9.24-8.75A9,9,0,0,1,34.08,13.12ZM26.91,41.67H41.49V100H26.91V41.67Z"/>
  </g>
</svg>
