<?xml version="1.0" encoding="utf-8"?>
<!-- Generator: Adobe Illustrator 19.2.1, SVG Export Plug-In . SVG Version: 6.00 Build 0)  -->
<svg version="1.1" id="Layer_1" xmlns="http://www.w3.org/2000/svg" xmlns:xlink="http://www.w3.org/1999/xlink" fill="#ffffff" x="0px" y="0px" viewBox="0 0 922 210.5" style="enable-background:new 0 0 922 210.5;" xml:space="preserve">
<g>
	<path class="" d="M103.9,210.5H79.8v-58h-0.6c-5,6.2-14.6,14.6-32.7,14.6C19,167.2,0,145.2,0,116.7s17.8-50.5,47.5-50.5
		c13.4,0,26.1,5.2,33.1,16.8H81V68.6h22.9V210.5z M52.3,145.6c17.6,0,28.3-13.8,28.3-28.9S70,87.8,52.3,87.8
		c-17.6,0-28.3,13.8-28.3,28.9S34.7,145.6,52.3,145.6z"/>
	<path class="" d="M219,164.8h-22.9v-15.4h-0.4c-4.4,9.6-13.4,17.8-29.5,17.8c-25.9,0-35.1-18.2-35.1-37.9V68.6h24.1v48.7
		c0,10.6,0.8,28.3,17.6,28.3c15.8,0,22.1-11.6,22.1-24.5V68.6H219V164.8z"/>
	<path class="" d="M258.5,21.4c8.8,0,15.6,6.2,15.6,14.4c0,8.2-6.8,14.4-15.6,14.4s-15.2-6.8-15.2-14.4
		C243.2,28.3,249.6,21.4,258.5,21.4z M246.6,68.6h24.1v96.3h-24.1V68.6z"/>
	<path class="" d="M310.6,0c8.8,0,15.6,6.2,15.6,14.4c0,8.2-6.8,14.4-15.6,14.4c-8.8,0-15.2-6.8-15.2-14.4
		C295.4,6.8,301.8,0,310.6,0z M298.8,47.1h24.1v96.3h-24.1V47.1z"/>
	<path class="" d="M457.2,68.6H480v15h0.4c4.2-9,13.4-17.4,29.5-17.4C524.8,66.2,535,72,540,84c7-12.2,17.2-17.8,31.7-17.8
		c25.7,0,34.7,18.2,34.7,41.3v57.3h-24.1v-54.5c0-12-3.6-22.5-17.8-22.5c-15,0-20.7,12.4-20.7,24.9v52.1h-24.1v-57.3
		c0-11.8-4.8-19.7-16.4-19.7c-15.8,0-22.1,11.6-22.1,24.5v52.5h-24.1V68.6z"/>
	<path class="" d="M651.9,125.1c1.6,14.2,12.4,22.9,25.9,22.9c12,0,19.9-5.6,25.9-13l17.2,13c-11.2,13.8-25.5,19.3-40.7,19.3
		c-29.1,0-52.3-20.3-52.3-50.5s23.3-50.5,52.3-50.5c26.9,0,45.1,18.8,45.1,52.3v6.6H651.9z M701.2,107.1c-0.2-14-9.4-22.9-24.5-22.9
		c-14.2,0-23.1,9-24.9,22.9H701.2z"/>
	<path class="" d="M767,125.1c1.6,14.2,12.4,22.9,25.9,22.9c12,0,19.9-5.6,25.9-13l17.2,13c-11.2,13.8-25.5,19.3-40.7,19.3
		c-29.1,0-52.3-20.3-52.3-50.5s23.3-50.5,52.3-50.5c26.9,0,45.1,18.8,45.1,52.3v6.6H767z M816.3,107.1c-0.2-14-9.4-22.9-24.5-22.9
		c-14.2,0-23.1,9-24.9,22.9H816.3z"/>
	<path class="" d="M851.6,89V68.6h19.9V40.7h24.1v27.9H922V89h-26.5v42.1c0,9.6,2.8,15.6,13.4,15.6c4.2,0,10-0.8,13-3V164
		c-5,2.4-13.4,3.2-19,3.2c-25.5,0-31.5-11.4-31.5-34.1V89H851.6z"/>
	<path class="" d="M350.5,13.2h24.1v95.2l37.1-39.9h30.9l-41.3,43.7l43.9,52.5h-31.9L375,115.7h-0.4v49.1h-24.1V13.2z"/>
</g>
</svg>
